<svg width="19" height="15" viewBox="0 0 19 15" fill="none" xmlns="http://www.w3.org/2000/svg">
<path d="M1.83333 14.6667C1.32917 14.6667 0.89375 14.491 0.527083 14.1396C0.175694 13.7729 0 13.3375 0 12.8333V1.83333C0 1.32917 0.175694 0.901389 0.527083 0.549999C0.89375 0.183333 1.32917 0 1.83333 0H16.5C17.0042 0 17.4319 0.183333 17.7833 0.549999C18.15 0.901389 18.3333 1.32917 18.3333 1.83333V12.8333C18.3333 13.3375 18.15 13.7729 17.7833 14.1396C17.4319 14.491 17.0042 14.6667 16.5 14.6667H1.83333ZM9.16667 8.25L16.5 3.66667V1.83333L9.16667 6.41667L1.83333 1.83333V3.66667L9.16667 8.25Z" fill="#8B8B9D"/>
</svg>
