<svg width="10" height="10" viewBox="0 0 10 10" fill="none" xmlns="http://www.w3.org/2000/svg">
<path d="M8.21967 0.21967C8.51256 -0.0732232 8.98732 -0.0732232 9.28022 0.21967C9.57311 0.512563 9.57311 0.987323 9.28022 1.28022L5.81049 4.74994L9.28022 8.21967C9.57311 8.51256 9.57311 8.98732 9.28022 9.28022C8.98732 9.57311 8.51256 9.57311 8.21967 9.28022L4.74994 5.81049L1.28022 9.28022C0.987323 9.57311 0.512563 9.57311 0.21967 9.28022C-0.0732232 8.98732 -0.0732232 8.51256 0.21967 8.21967L3.6894 4.74994L0.21967 1.28022C-0.0732233 0.987323 -0.0732233 0.512563 0.21967 0.21967C0.512563 -0.0732233 0.987323 -0.0732233 1.28022 0.21967L4.74994 3.6894L8.21967 0.21967Z" fill="white"/>
</svg>
