<svg width="18" height="18" viewBox="0 0 18 18" fill="none" xmlns="http://www.w3.org/2000/svg">
<path d="M2.25 15.75H15.75V11.25H18V15.75C18 16.3467 17.7628 16.9189 17.3408 17.3408C16.9189 17.7628 16.3467 18 15.75 18H2.25C1.65326 18 1.08114 17.7628 0.65918 17.3408C0.237223 16.9189 0 16.3467 0 15.75V11.25H2.25V15.75ZM15.3643 6.36426L13.7734 7.95508L10.125 4.30664V12.3594C10.125 12.6575 10.0066 12.9434 9.7959 13.1543C9.58492 13.3653 9.29836 13.4844 9 13.4844C8.70163 13.4844 8.41508 13.3653 8.2041 13.1543C7.99342 12.9434 7.87503 12.6575 7.875 12.3594V4.30859L4.22656 7.95508L2.63574 6.36426L9 0L15.3643 6.36426Z" fill="white"/>
</svg>
